<?xml version="1.0" standalone="no"?>
<!DOCTYPE svg PUBLIC "-//W3C//DTD SVG 20010904//EN"
 "http://www.w3.org/TR/2001/REC-SVG-20010904/DTD/svg10.dtd">
<svg version="1.0" xmlns="http://www.w3.org/2000/svg"
 width="992.000000pt" height="992.000000pt" viewBox="0 0 992.000000 992.000000"
 preserveAspectRatio="xMidYMid meet">
<metadata>
Created by potrace 1.14, written by Peter Selinger 2001-2017
</metadata>
<g transform="translate(0.000000,992.000000) scale(0.100000,-0.100000)"
fill="#000000" stroke="none">
<path d="M7777 7934 c-1 -1 -45 -4 -97 -8 -105 -6 -127 -9 -245 -33 -97 -19
-96 -19 -115 -25 -8 -3 -46 -16 -85 -28 -99 -32 -193 -74 -310 -141 -115 -64
-145 -83 -145 -91 0 -5 -5 -8 -11 -8 -6 0 -32 -17 -57 -37 -26 -21 -55 -45
-65 -53 -73 -57 -257 -256 -257 -278 0 -5 -7 -12 -15 -16 -8 -3 -15 -12 -15
-21 0 -8 -4 -15 -9 -15 -9 0 -151 -233 -151 -248 0 -4 -11 -29 -24 -55 -30
-59 -104 -273 -122 -352 -49 -222 -58 -299 -57 -505 0 -147 5 -241 18 -320 20
-131 16 -109 40 -210 28 -119 77 -254 128 -355 27 -55 55 -110 61 -122 6 -13
14 -23 19 -23 4 0 7 -7 7 -15 0 -8 5 -15 10 -15 6 0 10 -6 10 -13 0 -7 8 -22
18 -33 9 -10 36 -44 59 -74 45 -59 140 -153 213 -211 47 -37 168 -119 176
-119 2 0 23 -12 46 -26 23 -14 46 -27 52 -28 6 -1 26 -10 44 -20 110 -58 366
-133 517 -151 22 -3 50 -7 63 -9 129 -26 594 -26 737 0 83 15 235 46 270 56
22 6 45 12 50 14 14 3 139 48 202 72 l53 20 -4 -21 c-3 -12 -5 -23 -7 -24 -1
-2 -2 -6 -3 -10 -12 -51 -75 -241 -95 -288 -42 -98 -139 -284 -178 -341 -74
-110 -90 -130 -203 -243 -113 -113 -155 -151 -169 -151 -5 0 -11 -4 -13 -9 -7
-20 -181 -126 -303 -186 -192 -94 -408 -162 -635 -200 -52 -9 -108 -19 -125
-21 -138 -23 -357 -40 -592 -46 l-92 -2 5 -80 c4 -77 7 -128 20 -391 3 -60 7
-139 8 -175 2 -36 4 -92 5 -126 l1 -61 148 4 c81 3 186 5 234 6 49 1 88 4 88
7 0 3 17 6 38 6 20 1 66 5 102 8 62 5 88 9 170 20 19 3 55 8 80 11 25 4 83 13
130 22 47 8 94 16 105 18 11 2 52 11 90 20 39 9 81 19 95 22 53 11 229 64 325
97 119 41 308 119 355 146 8 5 35 19 60 31 82 41 301 178 359 225 9 7 45 36
81 65 84 67 289 274 361 364 66 83 189 262 189 276 0 5 3 9 8 9 4 0 12 10 18
23 6 12 33 65 60 117 45 86 70 138 121 256 9 21 18 44 19 49 2 6 19 55 38 110
32 91 79 244 91 299 18 78 26 114 31 136 2 14 7 32 9 40 3 8 7 33 10 55 4 22
8 51 11 65 3 14 7 39 9 55 2 17 7 46 10 65 8 53 22 176 30 255 19 200 26 673
11 830 -4 44 -9 103 -11 130 -4 63 -19 177 -30 235 -3 14 -7 41 -10 60 -6 49
-14 89 -27 135 -6 22 -11 47 -12 55 -1 8 -8 35 -15 60 -7 25 -14 52 -16 60 -2
9 -14 49 -28 90 -116 345 -270 603 -497 831 -211 213 -465 354 -780 434 -58
15 -118 29 -135 31 -16 2 -47 6 -68 10 -55 9 -84 12 -167 19 -74 6 -318 13
-323 9z m298 -838 c122 -24 214 -64 321 -137 66 -46 194 -167 194 -185 0 -4 9
-17 19 -28 25 -27 102 -181 135 -270 23 -61 50 -152 62 -211 10 -49 35 -194
39 -230 6 -46 13 -99 20 -152 13 -97 21 -486 13 -627 -1 -25 -10 -32 -72 -61
-69 -32 -133 -58 -148 -61 -5 -1 -9 -2 -10 -4 -3 -2 -10 -3 -93 -25 -79 -20
-101 -24 -155 -31 -25 -3 -56 -7 -70 -10 -46 -8 -224 -18 -325 -18 -130 0
-224 9 -322 30 -16 3 -37 7 -48 9 -11 2 -21 4 -22 4 -2 1 -6 1 -10 2 -5 0 -12
4 -18 8 -5 5 -23 11 -40 15 -41 10 -195 86 -195 97 0 5 -6 9 -13 9 -20 0 -129
111 -171 175 -36 54 -102 194 -112 236 -2 10 -6 28 -9 39 -6 23 -13 55 -20 90
-20 90 -27 383 -12 486 8 60 54 239 67 264 5 9 6 20 3 24 -3 3 -1 6 5 6 7 0
12 5 12 11 0 20 72 154 115 214 131 183 328 308 519 331 22 3 42 7 44 8 6 7
258 -1 297 -8z"/>
<path d="M69 7799 c-5 -3 3 -39 17 -80 14 -41 26 -80 27 -86 0 -7 3 -13 7 -13
3 0 12 -24 19 -52 8 -29 16 -57 19 -63 6 -10 97 -272 160 -460 20 -60 39 -112
42 -115 3 -3 20 -50 38 -105 19 -55 38 -109 43 -120 4 -11 19 -51 33 -90 63
-181 61 -177 87 -240 4 -11 29 -78 54 -150 70 -197 212 -578 246 -660 4 -11
29 -76 55 -145 26 -69 55 -145 64 -170 10 -25 36 -92 58 -150 22 -58 44 -116
50 -130 5 -14 18 -45 27 -70 10 -25 23 -58 30 -75 7 -16 24 -59 38 -95 14 -36
31 -78 38 -95 7 -16 13 -32 14 -35 5 -14 19 -48 30 -75 7 -16 46 -111 85 -210
40 -99 80 -198 90 -220 10 -22 50 -119 90 -215 66 -160 85 -207 111 -265 5
-11 67 -155 138 -320 71 -165 156 -362 190 -437 34 -76 61 -142 61 -148 0 -5
5 -10 12 -10 6 0 8 -3 5 -6 -3 -4 -1 -16 5 -28 7 -11 13 -23 13 -26 2 -6 30
-68 84 -183 22 -49 41 -90 41 -92 0 -1 18 -42 40 -89 22 -47 40 -90 40 -96 0
-5 4 -10 10 -10 5 0 9 -3 8 -8 -6 -18 29 -73 49 -78 30 -8 153 -10 153 -3 0 3
21 3 48 -1 26 -3 64 -3 85 1 21 3 39 3 42 0 2 -4 33 -4 70 -1 37 3 69 2 71 -2
3 -5 9 -6 13 -4 9 6 90 7 214 4 53 -2 97 -1 97 2 0 6 159 2 176 -4 7 -3 21 16
33 45 12 27 40 89 62 137 58 124 65 140 230 510 10 23 28 61 38 85 36 80 54
122 56 127 0 3 11 27 23 54 12 27 22 50 22 52 0 1 16 37 35 78 19 42 35 79 35
82 0 3 9 26 21 51 52 113 142 329 142 341 0 6 4 12 8 12 4 0 10 12 14 27 3 15
18 51 32 81 14 29 26 58 27 65 2 7 10 28 18 47 46 104 82 196 80 203 -1 4 2 7
6 7 5 0 9 6 9 13 0 10 21 62 73 182 5 11 29 72 54 135 25 63 51 129 57 145 7
17 13 32 14 35 5 15 18 48 26 65 5 11 33 83 63 160 30 77 79 205 110 283 31
79 56 150 56 158 0 8 5 14 10 14 6 0 10 7 10 15 0 12 74 215 99 270 11 23 232
615 235 630 2 6 7 19 11 30 4 11 20 54 35 95 16 41 47 126 70 188 23 62 43
118 44 125 2 7 8 23 13 37 13 30 144 391 147 405 2 6 6 17 9 25 13 37 59 165
97 275 23 66 52 149 65 185 13 36 31 90 40 120 10 30 20 60 24 65 3 6 6 15 8
20 1 6 5 19 8 30 6 20 2 20 -545 19 -328 0 -554 -4 -560 -10 -5 -5 -45 -121
-90 -259 -45 -137 -85 -259 -90 -270 -5 -11 -44 -123 -85 -250 -42 -126 -79
-237 -82 -245 -4 -8 -7 -17 -8 -20 -1 -3 -4 -12 -8 -20 -3 -8 -17 -49 -31 -90
-13 -41 -56 -165 -94 -275 -38 -110 -82 -236 -97 -280 -15 -44 -32 -86 -38
-92 -5 -7 -7 -13 -3 -13 3 0 -4 -24 -15 -52 -12 -29 -22 -60 -24 -68 -2 -8
-13 -40 -25 -70 -20 -53 -39 -104 -120 -330 -20 -58 -40 -112 -43 -120 -12
-29 -157 -435 -162 -450 -2 -8 -13 -40 -25 -70 -12 -30 -24 -64 -27 -75 -3
-11 -11 -33 -18 -50 -8 -16 -25 -61 -39 -100 -14 -38 -31 -83 -37 -100 -7 -16
-13 -34 -14 -40 -2 -5 -37 -99 -79 -207 -42 -108 -76 -202 -76 -207 0 -6 -5
-11 -12 -11 -6 0 -9 -3 -6 -6 5 -4 -43 -137 -72 -199 -12 -26 -32 -77 -35 -90
-3 -11 -69 -173 -91 -220 -7 -16 -27 -66 -44 -110 -18 -44 -33 -82 -35 -84 -4
-3 -35 61 -70 144 -84 197 -204 492 -270 665 -78 206 -277 736 -280 745 -1 6
-6 19 -10 30 -4 11 -21 56 -37 100 -16 44 -38 103 -48 130 -10 28 -35 97 -55
155 -20 58 -43 121 -50 140 -18 47 -59 162 -83 235 -12 33 -51 146 -87 250
-37 105 -73 208 -80 230 -7 22 -43 126 -79 230 -37 105 -69 197 -71 205 -2 8
-38 114 -80 235 -42 121 -90 261 -106 310 -17 50 -33 97 -36 105 -4 8 -7 17
-7 20 -1 3 -4 10 -7 15 -4 6 -10 24 -14 40 -10 34 -10 35 -18 55 -10 26 -49
142 -52 154 -1 6 -6 22 -12 36 -6 14 -27 76 -48 138 -32 95 -41 112 -59 113
-91 4 -1110 3 -1117 -2z"/>
</g>
</svg>
